<svg width="50" height="50" viewBox="0 0 50 50" fill="none" xmlns="http://www.w3.org/2000/svg">
<rect x="0.5" y="0.5" width="49" height="49" rx="7.5" fill="#FAFAFB"/>
<path d="M19.4457 25.0002C19.4457 21.932 21.9323 19.4442 25.0006 19.4442C28.0688 19.4442 30.5568 21.932 30.5568 25.0002C30.5568 28.0683 28.0688 30.5562 25.0006 30.5562C21.9323 30.5562 19.4457 28.0683 19.4457 25.0002ZM16.4421 25.0002C16.4421 29.7268 20.2737 33.5583 25.0006 33.5583C29.7274 33.5583 33.5591 29.7268 33.5591 25.0002C33.5591 20.2735 29.7274 16.442 25.0006 16.442C20.2737 16.442 16.4421 20.2735 16.4421 25.0002ZM31.8978 16.1027C31.8974 17.2073 32.7925 18.1031 33.8971 18.1035C35.0017 18.1039 35.8975 17.2089 35.898 16.1043C35.8984 14.9997 35.0033 14.1039 33.8987 14.1035C32.7946 14.104 31.8988 14.9987 31.8978 16.1027ZM18.267 38.5664C16.642 38.4924 15.7587 38.2218 15.1718 37.9931C14.3936 37.6902 13.8384 37.3294 13.2546 36.7464C12.6709 36.1635 12.3095 35.6088 12.0079 34.8307C11.7791 34.244 11.5084 33.3606 11.4346 31.7356C11.3538 29.9788 11.3376 29.4511 11.3376 25.0003C11.3376 20.5495 11.3551 20.0232 11.4346 18.265C11.5086 16.64 11.7813 15.7583 12.0079 15.1699C12.3109 14.3918 12.6717 13.8366 13.2546 13.2528C13.8376 12.6691 14.3923 12.3078 15.1718 12.0062C15.7585 11.7774 16.642 11.5067 18.267 11.4328C20.0239 11.352 20.5516 11.3359 25.0006 11.3359C29.4496 11.3359 29.9779 11.3534 31.7362 11.4328C33.3612 11.5068 34.243 11.7795 34.8314 12.0062C35.6095 12.3078 36.1648 12.6699 36.7485 13.2528C37.3323 13.8358 37.6923 14.3918 37.9952 15.1699C38.2241 15.7566 38.4947 16.64 38.5686 18.265C38.6494 20.0232 38.6655 20.5495 38.6655 25.0003C38.6655 29.4511 38.6494 29.9774 38.5686 31.7356C38.4946 33.3606 38.2226 34.2438 37.9952 34.8307C37.6923 35.6088 37.3315 36.164 36.7485 36.7464C36.1656 37.3288 35.6095 37.6902 34.8314 37.9931C34.2447 38.2219 33.3612 38.4926 31.7362 38.5664C29.9793 38.6472 29.4516 38.6634 25.0006 38.6634C20.5496 38.6634 20.0233 38.6472 18.267 38.5664ZM18.129 8.43443C16.3546 8.51523 15.1422 8.79656 14.0833 9.20856C12.9868 9.63403 12.0585 10.2048 11.1308 11.131C10.2032 12.0571 9.63384 12.9868 9.20835 14.0834C8.79634 15.1428 8.51499 16.3546 8.43419 18.1288C8.35205 19.9059 8.33325 20.474 8.33325 25.0002C8.33325 29.5263 8.35205 30.0944 8.43419 31.8715C8.51499 33.6459 8.79634 34.8575 9.20835 35.917C9.63384 37.0128 10.2033 37.9436 11.1308 38.8694C12.0583 39.7951 12.9868 40.3651 14.0833 40.7918C15.1442 41.2038 16.3546 41.4851 18.129 41.5659C19.907 41.6467 20.4743 41.6668 25.0006 41.6668C29.5269 41.6668 30.0951 41.648 31.8722 41.5659C33.6467 41.4851 34.8583 41.2038 35.9178 40.7918C37.0137 40.3651 37.9427 39.7955 38.8703 38.8694C39.798 37.9432 40.3661 37.0128 40.7928 35.917C41.2048 34.8575 41.4875 33.6458 41.567 31.8715C41.6478 30.0931 41.6666 29.5263 41.6666 25.0002C41.6666 20.474 41.6478 19.9059 41.567 18.1288C41.4862 16.3544 41.2048 15.1422 40.7928 14.0834C40.3661 12.9875 39.7965 12.0586 38.8703 11.131C37.9442 10.2034 37.0137 9.63403 35.9192 9.20856C34.8583 8.79656 33.6465 8.5139 31.8735 8.43443C30.0964 8.35363 29.5282 8.3335 25.0019 8.3335C20.4756 8.3335 19.907 8.3523 18.129 8.43443Z" fill="#202020"/>
<rect x="0.5" y="0.5" width="49" height="49" rx="7.5" stroke="black"/>
</svg>
