<svg width="50" height="50" viewBox="0 0 50 50" fill="none" xmlns="http://www.w3.org/2000/svg">
<g clip-path="url(#clip0_344_712)">
<path d="M25 49.9844C20.112 49.9851 15.3313 48.5502 11.2516 45.8578L1.64534 48.9266L4.7594 39.6453C1.65891 35.3923 -0.00795584 30.2632 2.85509e-05 25C2.85509e-05 11.2219 11.2078 0.015625 24.9844 0.015625C38.761 0.015625 49.9688 11.2219 49.9688 25C49.9688 38.7781 38.7656 49.9844 24.9844 49.9844H25Z" fill="#FEFEFE"/>
<path d="M25 0.0141602C11.2219 0.0141602 0.0148926 11.2216 0.0148926 24.9993C0.0148926 30.4631 1.77757 35.531 4.77396 39.6442L1.65943 48.9281L11.2617 45.8583C15.2124 48.4729 19.9279 49.9856 25.0104 49.9856C38.7885 49.9856 49.9955 38.7778 49.9955 25.0005C49.9955 11.2233 38.788 0.0154031 25.0104 0.0154031H24.9959L25 0.0141602Z" fill="#FAFAFB"/>
<path d="M18.0235 12.7061C17.5547 11.5451 17.1719 11.5029 16.4376 11.4561L15.6 11.4248C14.6469 11.4248 13.6469 11.7061 13.0438 12.3201C12.3094 13.0701 10.4875 14.817 10.4875 18.4014C10.4875 21.9857 13.1016 25.4514 13.4563 25.9373C13.8235 26.4061 18.5532 33.8842 25.8985 36.9248C31.6422 39.3045 33.3454 39.0842 34.6532 38.8045C36.5626 38.3936 38.9563 36.9826 39.5594 35.2795C40.1626 33.5764 40.1626 32.1232 39.9844 31.8107C39.8063 31.4982 39.3235 31.342 38.5891 30.9592C37.8547 30.5764 34.286 28.8295 33.6094 28.5936C32.9485 28.3436 32.3172 28.4326 31.8172 29.1373C31.1141 30.1217 30.4219 31.1217 29.8641 31.7217C29.4235 32.1904 28.7032 32.2529 28.1016 32.0029C27.2938 31.6654 25.0313 30.8717 22.2422 28.3889C20.0829 26.467 18.6141 24.0701 18.1876 23.3514C17.761 22.617 18.1438 22.1904 18.4813 21.7936C18.8485 21.3373 19.2 21.0154 19.5688 20.5904C19.9375 20.1654 20.1422 19.9436 20.3766 19.4451C20.6266 18.9764 20.4501 18.4607 20.2735 18.0936C20.0969 17.7264 18.6282 14.1404 18.0266 12.6873L18.0235 12.7061Z" fill="#202020"/>
</g>
<rect x="0.5" y="0.5" width="49" height="49" rx="7.5" stroke="black"/>
<defs>
<clipPath id="clip0_344_712">
<rect width="50" height="50" rx="8" fill="white"/>
</clipPath>
</defs>
</svg>
